# xmcd
#
# Track frame offsets: 
#        150
#        12367
#        24672
#        36901
#        49193
#        61638
#        74217
#        86478
#        98517
#        111707
#
# Disc length: 1660 seconds
#
# Revision: 1
# Processed by: cddbd v1.5.2PL0 Copyright (c) Steve Scherf et al.
# Submitted via: ExactAudioCopy v0.99pb3
#
DISCID=86067a0a
DTITLE=Hank Williams - The Best Of Hank Williams [CD2 of 2)
DYEAR=2004
DGENRE=Country
TTITLE0=Lovesick Blues
TTITLE1=I Saw The Light
TTITLE2=Last Night (I Heard You Crying In Your Sleep)
TTITLE3=Honky Tonkin'
TTITLE4=Wealth Won't Save Your Soul
TTITLE5=I Don't Care (If Tomorrow Never Comes)
TTITLE6=My Sweet Love Ain't Around
TTITLE7=The Blues Come Around
TTITLE8=Mind Your Own Business
TTITLE9=Calling You
EXTD=
EXTT0=
EXTT1=
EXTT2=
EXTT3=
EXTT4=
EXTT5=
EXTT6=
EXTT7=
EXTT8=
EXTT9=
PLAYORDER=
